<?xml version="1.0" encoding="UTF-8"?>
<svg viewBox="0 0 512 512" version="1.1" xmlns="http://www.w3.org/2000/svg" width="512" height="512">
<path d="M0 0 C2.42369396 0.96997341 3.7175317 2.11266377 5.560601 3.95932347 C6.24086054 4.63360986 6.92112008 5.30789626 7.62199354 6.00261557 C8.73094602 7.12467584 8.73094602 7.12467584 9.86230159 8.26940399 C10.65384489 9.05838402 11.4453882 9.84736405 12.26091766 10.66025257 C14.92285314 13.31722971 17.57389487 15.98481945 20.22515559 18.65244538 C22.12655835 20.55469396 24.02854609 22.45634011 25.93128657 24.35724884 C30.03244207 28.4568303 34.12806334 32.56187447 38.21999049 36.67066628 C44.13625306 42.61129651 50.06076948 48.54363825 55.98734155 54.47398131 C65.60227518 64.09548292 75.21048843 73.72366677 84.81451106 83.35605866 C94.14465706 92.71373623 103.47794468 102.06826184 112.81548762 111.41855866 C113.39092688 111.99478608 113.96636613 112.5710135 114.55924293 113.16470236 C117.44603453 116.05540903 120.33288813 118.94605377 123.21977258 121.83666772 C147.17422304 145.8222249 171.11778115 169.81862828 195.05425715 193.82212311 C198.09686928 192.46165558 200.18906792 190.93347925 202.53381038 188.57469898 C203.20811973 187.90128824 203.88242908 187.22787749 204.57717204 186.53406036 C205.30985427 185.79214185 206.0425365 185.05022334 206.79742122 184.28582245 C207.58205871 183.49936598 208.3666962 182.71290951 209.17511058 181.90262103 C211.81145769 179.25783895 214.44058727 176.60599493 217.06988215 173.95420319 C218.95511993 172.06021896 220.84076634 170.16665074 222.72698665 168.27364594 C226.79177965 164.19284461 230.85316543 160.10867793 234.91253352 156.02248055 C241.32547548 149.56764317 247.74818931 143.12257859 254.17242122 136.67898041 C256.36968747 134.47483445 258.56687741 132.27061244 260.76403499 130.06635815 C261.31309308 129.5155284 261.86215117 128.96469866 262.42784739 128.3971771 C268.67623954 122.12829322 274.92229316 115.85708135 281.1675384 109.58506256 C281.73842519 109.01173322 282.30931198 108.43840388 282.89749837 107.84770092 C292.15898206 98.54616775 301.41454213 89.23875618 310.66882634 79.93006096 C320.16555192 70.37797852 329.67183041 60.83547245 339.18625712 51.30102134 C345.05775221 45.41642674 350.92109736 39.52393613 356.7743299 33.62117501 C360.78215014 29.58073362 364.79890038 25.54931878 368.82290435 21.52499542 C371.14681126 19.20031908 373.46495746 16.87035848 375.77518916 14.53208023 C378.27585131 12.00228291 380.79124244 9.48813546 383.31109309 6.97747284 C384.41011643 5.85455683 384.41011643 5.85455683 385.53134227 4.70895565 C386.20565162 4.04336814 386.87996097 3.37778064 387.57470393 2.69202381 C388.44404881 1.81820481 388.44404881 1.81820481 389.33095622 0.9267329 C391.05425715 -0.17787689 391.05425715 -0.17787689 393.10599875 0.00167441 C396.24270076 1.32259934 398.39328641 3.72791577 400.75664973 6.10459381 C401.31479365 6.65426819 401.87293757 7.20394257 402.44799495 7.77027375 C404.28948511 9.58837518 406.11957262 11.41745949 407.9487884 13.24790436 C409.22312614 14.51514346 410.49776303 15.78208179 411.77268672 17.04873139 C414.44166986 19.70426667 417.10463665 22.36566999 419.76397395 25.03086334 C423.17831915 28.45111536 426.61058522 31.85273878 430.04800582 35.24977833 C432.68424299 37.86021646 435.30897577 40.4819866 437.9305141 43.10717827 C439.19170338 44.36667008 440.4568988 45.6221632 441.72608066 46.87360054 C443.49578368 48.62126102 445.24899587 50.38395326 446.99883723 52.15146881 C447.79429202 52.92702873 447.79429202 52.92702873 448.6058166 53.71825653 C450.03748775 55.18389374 450.03748775 55.18389374 452.05425715 57.82212311 C451.81053346 61.70693695 449.62655947 63.62289658 446.96439719 66.28112656 C446.07762367 67.17387323 445.19085014 68.0666199 444.27720469 68.9864195 C443.28199636 69.97306842 442.28664992 70.95957806 441.29118037 71.94596344 C440.24197668 72.9964748 439.19343225 74.04764495 438.14549333 75.09941798 C435.258473 77.99316277 432.36215386 80.87744275 429.46427214 83.76030499 C426.34296279 86.8686865 423.23029954 89.98570438 420.11658931 93.10169464 C414.71887543 98.50098332 409.31568592 103.89474207 403.90876269 109.28480774 C396.09122355 117.07798939 388.28195909 124.8794194 380.47470421 132.68290225 C367.80843184 145.34260503 355.13547127 157.99559067 342.45830989 170.64438874 C330.14197529 182.93319589 317.82878833 195.22514283 305.51983333 207.52134186 C304.76139917 208.27898784 304.00296502 209.03663383 303.22154801 209.81723878 C299.416813 213.61805874 295.61213992 217.41894069 291.80749762 221.21985346 C260.23268005 252.76355932 228.64700932 284.29638044 197.05425715 315.82212311 C193.55634272 314.32236916 191.29285361 312.31395799 188.60807776 309.63600594 C187.71819779 308.75319156 186.82831782 307.87037717 185.91147178 306.96081084 C184.92810421 305.97519189 183.94483431 304.98947549 182.96165156 304.00367218 C181.91433013 302.96080242 180.86657848 301.91836458 179.81843334 300.87632269 C176.93640366 298.00849099 174.06067749 295.13440979 171.18595922 292.25925165 C168.08594333 289.1608823 164.98023033 286.06823242 161.87530208 282.97478729 C155.08730684 276.20964994 148.30679189 269.43704794 141.52768946 262.66300112 C137.29758525 258.43615173 133.06585023 254.21093771 128.83376193 249.98607498 C117.12340901 238.29528569 105.41463666 226.60292005 93.7126081 214.90379769 C92.96369137 214.15506853 92.21477465 213.40633937 91.44316347 212.63492145 C89.92486727 211.1169915 88.40657234 209.59906028 86.88827869 208.08112778 C86.13456769 207.3275996 85.3808567 206.57407142 84.60430598 205.79770905 C83.84968014 205.04326376 83.0950543 204.28881846 82.31756101 203.51151119 C70.07583806 191.27333372 57.82240833 179.04695079 45.5637941 166.82569505 C32.98741578 154.28733861 20.42035833 141.73970493 7.86282498 129.18247408 C0.80817959 122.12841449 -6.25040616 115.07840008 -13.31916547 108.0384813 C-19.33497293 102.04710545 -25.34220341 96.04729566 -31.33825419 90.03614505 C-34.4001533 86.96704438 -37.46602641 83.90220065 -40.5428021 80.84800774 C-43.35553562 78.05572298 -46.15663024 75.25230233 -48.94863745 72.43929754 C-49.96430521 71.42010777 -50.98427671 70.40518646 -52.00877044 69.39486898 C-53.39354001 68.02804417 -54.76169242 66.64444343 -56.12876916 65.25992256 C-56.89553454 64.49397164 -57.66229992 63.72802072 -58.45230061 62.93885916 C-59.94574285 60.82212311 -59.94574285 60.82212311 -59.8253836 58.71049112 C-58.39911483 55.6486499 -56.02781926 53.47103089 -53.66327214 51.11973053 C-53.11359776 50.56158661 -52.56392339 50.00344269 -51.99759221 49.42838532 C-50.17949078 47.58689516 -48.35040646 45.75680765 -46.5199616 43.92759186 C-45.2527225 42.65325412 -43.98578416 41.37861723 -42.71913457 40.10369354 C-40.06359929 37.4347104 -37.40219596 34.77174362 -34.73700261 32.11240631 C-31.3167506 28.69806112 -27.91512718 25.26579504 -24.51808763 21.82837445 C-21.90764949 19.19213727 -19.28587935 16.5674045 -16.66068769 13.94586617 C-15.40119588 12.68467688 -14.14570276 11.41948147 -12.89426541 10.15029961 C-11.14660493 8.38059658 -9.3839127 6.62738439 -7.61639714 4.87754303 C-7.09935719 4.34723984 -6.58231725 3.81693665 -6.04960942 3.27056366 C-2.47026662 -0.22582807 -2.47026662 -0.22582807 0 0 Z " fill="#000000" transform="translate(59.94574284553528,98.17787688970566)"/>
</svg>
